<svg class="railroad-diagram" width="333" height="242" viewBox="0 0 333 242">
<g transform="translate(.5 .5)">
<path d="M 20 21 v 20 m 10 -20 v 20 m -10 -10 h 20.5"></path>
<g>
<path d="M40 31h0"></path>
<path d="M292 31h0"></path>
<path d="M40 31h20"></path>
<g>
<path d="M60 31h0"></path>
<path d="M272 31h0"></path>
<g>
<path d="M60 31h0"></path>
<path d="M152 31h0"></path>
<path d="M60 31h20"></path>
<g>
<path d="M80 31h0"></path>
<path d="M132 31h0"></path>
<rect x="80" y="20" width="52" height="22" rx="10" ry="10"></rect>
<text x="106" y="35">last</text>
</g>
<path d="M132 31h20"></path>
<path d="M60 31a10 10 0 0 1 10 10v10a10 10 0 0 0 10 10"></path>
<g>
<path d="M80 61h0"></path>
<path d="M132 61h0"></path>
<rect x="80" y="50" width="52" height="22" rx="10" ry="10"></rect>
<text x="106" y="65">this</text>
</g>
<path d="M132 61a10 10 0 0 0 10 -10v-10a10 10 0 0 1 10 -10"></path>
<path d="M60 31a10 10 0 0 1 10 10v40a10 10 0 0 0 10 10"></path>
<g>
<path d="M80 91h0"></path>
<path d="M132 91h0"></path>
<rect x="80" y="80" width="52" height="22" rx="10" ry="10"></rect>
<text x="106" y="95">next</text>
</g>
<path d="M132 91a10 10 0 0 0 10 -10v-40a10 10 0 0 1 10 -10"></path>
</g>
<path d="M152 31h10"></path>
<g>
<path d="M162 31h0"></path>
<path d="M190 31h0"></path>
<rect x="162" y="20" width="28" height="22"></rect>
<text x="176" y="35">&#95;</text>
</g>
<path d="M190 31h10"></path>
<path d="M200 31h10"></path>
<g>
<path d="M210 31h0"></path>
<path d="M262 31h0"></path>
<rect x="210" y="20" width="52" height="22"></rect>
<text x="236" y="35">Unit</text>
</g>
<path d="M262 31h10"></path>
</g>
<path d="M272 31h20"></path>
<path d="M40 31a10 10 0 0 1 10 10v70a10 10 0 0 0 10 10"></path>
<g>
<path d="M60 121h84"></path>
<path d="M188 121h84"></path>
<rect x="144" y="110" width="44" height="22" rx="10" ry="10"></rect>
<text x="166" y="125">now</text>
</g>
<path d="M272 121a10 10 0 0 0 10 -10v-70a10 10 0 0 1 10 -10"></path>
<path d="M40 31a10 10 0 0 1 10 10v100a10 10 0 0 0 10 10"></path>
<g>
<path d="M60 151h76"></path>
<path d="M196 151h76"></path>
<rect x="136" y="140" width="60" height="22" rx="10" ry="10"></rect>
<text x="166" y="155">today</text>
</g>
<path d="M272 151a10 10 0 0 0 10 -10v-100a10 10 0 0 1 10 -10"></path>
<path d="M40 31a10 10 0 0 1 10 10v130a10 10 0 0 0 10 10"></path>
<g>
<path d="M60 181h60"></path>
<path d="M212 181h60"></path>
<rect x="120" y="170" width="92" height="22" rx="10" ry="10"></rect>
<text x="166" y="185">yesterday</text>
</g>
<path d="M272 181a10 10 0 0 0 10 -10v-130a10 10 0 0 1 10 -10"></path>
<path d="M40 31a10 10 0 0 1 10 10v160a10 10 0 0 0 10 10"></path>
<g>
<path d="M60 211h64"></path>
<path d="M208 211h64"></path>
<rect x="124" y="200" width="84" height="22" rx="10" ry="10"></rect>
<text x="166" y="215">tomorrow</text>
</g>
<path d="M272 211a10 10 0 0 0 10 -10v-160a10 10 0 0 1 10 -10"></path>
</g>
<path d="M 292 31 h 20 m -10 -10 v 20 m 10 -20 v 20"></path>
</g>
</svg>
