<svg class="railroad-diagram" width="377" height="92" viewBox="0 0 377 92">
<g transform="translate(.5 .5)">
<path d="M 20 21 v 20 m 10 -20 v 20 m -10 -10 h 20.5"></path>
<g>
<path d="M40 31h0"></path>
<path d="M336 31h0"></path>
<path d="M40 31h20"></path>
<g>
<path d="M60 31h22"></path>
<path d="M294 31h22"></path>
<rect x="82" y="20" width="212" height="22"></rect>
<text x="188" y="35">Every&#95;Single&#95;Unit&#95;Clause</text>
</g>
<path d="M316 31h20"></path>
<path d="M40 31a10 10 0 0 1 10 10v10a10 10 0 0 0 10 10"></path>
<g>
<path d="M60 61h0"></path>
<path d="M316 61h0"></path>
<path d="M60 61h10"></path>
<g>
<path d="M70 61h0"></path>
<path d="M130 61h0"></path>
<rect x="70" y="50" width="60" height="22" rx="10" ry="10"></rect>
<text x="100" y="65">every</text>
</g>
<path d="M130 61h10"></path>
<path d="M140 61h10"></path>
<g>
<path d="M150 61h0"></path>
<path d="M178 61h0"></path>
<rect x="150" y="50" width="28" height="22"></rect>
<text x="164" y="65">&#95;</text>
</g>
<path d="M178 61h10"></path>
<path d="M188 61h10"></path>
<g>
<path d="M198 61h0"></path>
<path d="M306 61h0"></path>
<rect x="198" y="50" width="108" height="22"></rect>
<text x="252" y="65">Span&#95;Clause</text>
</g>
<path d="M306 61h10"></path>
</g>
<path d="M316 61a10 10 0 0 0 10 -10v-10a10 10 0 0 1 10 -10"></path>
</g>
<path d="M 336 31 h 20 m -10 -10 v 20 m 10 -20 v 20"></path>
</g>
</svg>
