<svg class="railroad-diagram" width="329" height="62" viewBox="0 0 329 62">
<g transform="translate(.5 .5)">
<path d="M 20 21 v 20 m 10 -20 v 20 m -10 -10 h 20.5"></path>
<g>
<path d="M40 31h0"></path>
<path d="M288 31h0"></path>
<path d="M40 31h10"></path>
<g>
<path d="M50 31h0"></path>
<path d="M102 31h0"></path>
<rect x="50" y="20" width="52" height="22" rx="10" ry="10"></rect>
<text x="76" y="35">from</text>
</g>
<path d="M102 31h10"></path>
<path d="M112 31h10"></path>
<g>
<path d="M122 31h0"></path>
<path d="M150 31h0"></path>
<rect x="122" y="20" width="28" height="22"></rect>
<text x="136" y="35">&#95;</text>
</g>
<path d="M150 31h10"></path>
<path d="M160 31h10"></path>
<g>
<path d="M170 31h0"></path>
<path d="M278 31h0"></path>
<rect x="170" y="20" width="108" height="22"></rect>
<text x="224" y="35">Time&#95;Clause</text>
</g>
<path d="M278 31h10"></path>
</g>
<path d="M 288 31 h 20 m -10 -10 v 20 m 10 -20 v 20"></path>
</g>
</svg>
