<svg class="railroad-diagram" width="213" height="752" viewBox="0 0 213 752">
<g transform="translate(.5 .5)">
<path d="M 20 21 v 20 m 10 -20 v 20 m -10 -10 h 20.5"></path>
<g>
<path d="M40 31h0"></path>
<path d="M172 31h0"></path>
<path d="M40 31h20"></path>
<g>
<path d="M60 31h8"></path>
<path d="M144 31h8"></path>
<rect x="68" y="20" width="76" height="22" rx="10" ry="10"></rect>
<text x="106" y="35">january</text>
</g>
<path d="M152 31h20"></path>
<path d="M40 31a10 10 0 0 1 10 10v10a10 10 0 0 0 10 10"></path>
<g>
<path d="M60 61h4"></path>
<path d="M148 61h4"></path>
<rect x="64" y="50" width="84" height="22" rx="10" ry="10"></rect>
<text x="106" y="65">february</text>
</g>
<path d="M152 61a10 10 0 0 0 10 -10v-10a10 10 0 0 1 10 -10"></path>
<path d="M40 31a10 10 0 0 1 10 10v40a10 10 0 0 0 10 10"></path>
<g>
<path d="M60 91h16"></path>
<path d="M136 91h16"></path>
<rect x="76" y="80" width="60" height="22" rx="10" ry="10"></rect>
<text x="106" y="95">march</text>
</g>
<path d="M152 91a10 10 0 0 0 10 -10v-40a10 10 0 0 1 10 -10"></path>
<path d="M40 31a10 10 0 0 1 10 10v70a10 10 0 0 0 10 10"></path>
<g>
<path d="M60 121h16"></path>
<path d="M136 121h16"></path>
<rect x="76" y="110" width="60" height="22" rx="10" ry="10"></rect>
<text x="106" y="125">april</text>
</g>
<path d="M152 121a10 10 0 0 0 10 -10v-70a10 10 0 0 1 10 -10"></path>
<path d="M40 31a10 10 0 0 1 10 10v100a10 10 0 0 0 10 10"></path>
<g>
<path d="M60 151h24"></path>
<path d="M128 151h24"></path>
<rect x="84" y="140" width="44" height="22" rx="10" ry="10"></rect>
<text x="106" y="155">may</text>
</g>
<path d="M152 151a10 10 0 0 0 10 -10v-100a10 10 0 0 1 10 -10"></path>
<path d="M40 31a10 10 0 0 1 10 10v130a10 10 0 0 0 10 10"></path>
<g>
<path d="M60 181h20"></path>
<path d="M132 181h20"></path>
<rect x="80" y="170" width="52" height="22" rx="10" ry="10"></rect>
<text x="106" y="185">june</text>
</g>
<path d="M152 181a10 10 0 0 0 10 -10v-130a10 10 0 0 1 10 -10"></path>
<path d="M40 31a10 10 0 0 1 10 10v160a10 10 0 0 0 10 10"></path>
<g>
<path d="M60 211h20"></path>
<path d="M132 211h20"></path>
<rect x="80" y="200" width="52" height="22" rx="10" ry="10"></rect>
<text x="106" y="215">july</text>
</g>
<path d="M152 211a10 10 0 0 0 10 -10v-160a10 10 0 0 1 10 -10"></path>
<path d="M40 31a10 10 0 0 1 10 10v190a10 10 0 0 0 10 10"></path>
<g>
<path d="M60 241h12"></path>
<path d="M140 241h12"></path>
<rect x="72" y="230" width="68" height="22" rx="10" ry="10"></rect>
<text x="106" y="245">august</text>
</g>
<path d="M152 241a10 10 0 0 0 10 -10v-190a10 10 0 0 1 10 -10"></path>
<path d="M40 31a10 10 0 0 1 10 10v220a10 10 0 0 0 10 10"></path>
<g>
<path d="M60 271h0"></path>
<path d="M152 271h0"></path>
<rect x="60" y="260" width="92" height="22" rx="10" ry="10"></rect>
<text x="106" y="275">september</text>
</g>
<path d="M152 271a10 10 0 0 0 10 -10v-220a10 10 0 0 1 10 -10"></path>
<path d="M40 31a10 10 0 0 1 10 10v250a10 10 0 0 0 10 10"></path>
<g>
<path d="M60 301h8"></path>
<path d="M144 301h8"></path>
<rect x="68" y="290" width="76" height="22" rx="10" ry="10"></rect>
<text x="106" y="305">october</text>
</g>
<path d="M152 301a10 10 0 0 0 10 -10v-250a10 10 0 0 1 10 -10"></path>
<path d="M40 31a10 10 0 0 1 10 10v280a10 10 0 0 0 10 10"></path>
<g>
<path d="M60 331h4"></path>
<path d="M148 331h4"></path>
<rect x="64" y="320" width="84" height="22" rx="10" ry="10"></rect>
<text x="106" y="335">november</text>
</g>
<path d="M152 331a10 10 0 0 0 10 -10v-280a10 10 0 0 1 10 -10"></path>
<path d="M40 31a10 10 0 0 1 10 10v310a10 10 0 0 0 10 10"></path>
<g>
<path d="M60 361h4"></path>
<path d="M148 361h4"></path>
<rect x="64" y="350" width="84" height="22" rx="10" ry="10"></rect>
<text x="106" y="365">december</text>
</g>
<path d="M152 361a10 10 0 0 0 10 -10v-310a10 10 0 0 1 10 -10"></path>
<path d="M40 31a10 10 0 0 1 10 10v340a10 10 0 0 0 10 10"></path>
<g>
<path d="M60 391h24"></path>
<path d="M128 391h24"></path>
<rect x="84" y="380" width="44" height="22" rx="10" ry="10"></rect>
<text x="106" y="395">jan</text>
</g>
<path d="M152 391a10 10 0 0 0 10 -10v-340a10 10 0 0 1 10 -10"></path>
<path d="M40 31a10 10 0 0 1 10 10v370a10 10 0 0 0 10 10"></path>
<g>
<path d="M60 421h24"></path>
<path d="M128 421h24"></path>
<rect x="84" y="410" width="44" height="22" rx="10" ry="10"></rect>
<text x="106" y="425">feb</text>
</g>
<path d="M152 421a10 10 0 0 0 10 -10v-370a10 10 0 0 1 10 -10"></path>
<path d="M40 31a10 10 0 0 1 10 10v400a10 10 0 0 0 10 10"></path>
<g>
<path d="M60 451h24"></path>
<path d="M128 451h24"></path>
<rect x="84" y="440" width="44" height="22" rx="10" ry="10"></rect>
<text x="106" y="455">mar</text>
</g>
<path d="M152 451a10 10 0 0 0 10 -10v-400a10 10 0 0 1 10 -10"></path>
<path d="M40 31a10 10 0 0 1 10 10v430a10 10 0 0 0 10 10"></path>
<g>
<path d="M60 481h24"></path>
<path d="M128 481h24"></path>
<rect x="84" y="470" width="44" height="22" rx="10" ry="10"></rect>
<text x="106" y="485">apr</text>
</g>
<path d="M152 481a10 10 0 0 0 10 -10v-430a10 10 0 0 1 10 -10"></path>
<path d="M40 31a10 10 0 0 1 10 10v460a10 10 0 0 0 10 10"></path>
<g>
<path d="M60 511h24"></path>
<path d="M128 511h24"></path>
<rect x="84" y="500" width="44" height="22" rx="10" ry="10"></rect>
<text x="106" y="515">may</text>
</g>
<path d="M152 511a10 10 0 0 0 10 -10v-460a10 10 0 0 1 10 -10"></path>
<path d="M40 31a10 10 0 0 1 10 10v490a10 10 0 0 0 10 10"></path>
<g>
<path d="M60 541h24"></path>
<path d="M128 541h24"></path>
<rect x="84" y="530" width="44" height="22" rx="10" ry="10"></rect>
<text x="106" y="545">jun</text>
</g>
<path d="M152 541a10 10 0 0 0 10 -10v-490a10 10 0 0 1 10 -10"></path>
<path d="M40 31a10 10 0 0 1 10 10v520a10 10 0 0 0 10 10"></path>
<g>
<path d="M60 571h24"></path>
<path d="M128 571h24"></path>
<rect x="84" y="560" width="44" height="22" rx="10" ry="10"></rect>
<text x="106" y="575">jul</text>
</g>
<path d="M152 571a10 10 0 0 0 10 -10v-520a10 10 0 0 1 10 -10"></path>
<path d="M40 31a10 10 0 0 1 10 10v550a10 10 0 0 0 10 10"></path>
<g>
<path d="M60 601h24"></path>
<path d="M128 601h24"></path>
<rect x="84" y="590" width="44" height="22" rx="10" ry="10"></rect>
<text x="106" y="605">aug</text>
</g>
<path d="M152 601a10 10 0 0 0 10 -10v-550a10 10 0 0 1 10 -10"></path>
<path d="M40 31a10 10 0 0 1 10 10v580a10 10 0 0 0 10 10"></path>
<g>
<path d="M60 631h24"></path>
<path d="M128 631h24"></path>
<rect x="84" y="620" width="44" height="22" rx="10" ry="10"></rect>
<text x="106" y="635">sep</text>
</g>
<path d="M152 631a10 10 0 0 0 10 -10v-580a10 10 0 0 1 10 -10"></path>
<path d="M40 31a10 10 0 0 1 10 10v610a10 10 0 0 0 10 10"></path>
<g>
<path d="M60 661h24"></path>
<path d="M128 661h24"></path>
<rect x="84" y="650" width="44" height="22" rx="10" ry="10"></rect>
<text x="106" y="665">oct</text>
</g>
<path d="M152 661a10 10 0 0 0 10 -10v-610a10 10 0 0 1 10 -10"></path>
<path d="M40 31a10 10 0 0 1 10 10v640a10 10 0 0 0 10 10"></path>
<g>
<path d="M60 691h24"></path>
<path d="M128 691h24"></path>
<rect x="84" y="680" width="44" height="22" rx="10" ry="10"></rect>
<text x="106" y="695">nov</text>
</g>
<path d="M152 691a10 10 0 0 0 10 -10v-640a10 10 0 0 1 10 -10"></path>
<path d="M40 31a10 10 0 0 1 10 10v670a10 10 0 0 0 10 10"></path>
<g>
<path d="M60 721h24"></path>
<path d="M128 721h24"></path>
<rect x="84" y="710" width="44" height="22" rx="10" ry="10"></rect>
<text x="106" y="725">dec</text>
</g>
<path d="M152 721a10 10 0 0 0 10 -10v-670a10 10 0 0 1 10 -10"></path>
</g>
<path d="M 172 31 h 20 m -10 -10 v 20 m 10 -20 v 20"></path>
</g>
</svg>
