<?xml version="1.0" encoding="utf-8"?><svg class="railroad-diagram" width="261" height="92" viewBox="0 0 261 92">
<g transform="translate(.5 .5)">
<path d="M 20 21 v 20 m 10 -20 v 20 m -10 -10 h 20.5"></path>
<g>
<path d="M40 31h0"></path>
<path d="M220 31h0"></path>
<path d="M40 31h20"></path>
<g>
<path d="M60 31h0"></path>
<path d="M200 31h0"></path>
<rect x="60" y="20" width="140" height="22"></rect>
<text x="130" y="35">Weekday&#95;Literal</text>
</g>
<path d="M200 31h20"></path>
<path d="M40 31a10 10 0 0 1 10 10v10a10 10 0 0 0 10 10"></path>
<g>
<path d="M60 61h8"></path>
<path d="M192 61h8"></path>
<rect x="68" y="50" width="124" height="22"></rect>
<text x="130" y="65">Month&#95;Literal</text>
</g>
<path d="M200 61a10 10 0 0 0 10 -10v-10a10 10 0 0 1 10 -10"></path>
</g>
<path d="M 220 31 h 20 m -10 -10 v 20 m 10 -20 v 20"></path>
</g>
</svg>
