<svg class="railroad-diagram" width="321" height="62" viewBox="0 0 321 62">
<g transform="translate(.5 .5)">
<path d="M 20 21 v 20 m 10 -20 v 20 m -10 -10 h 20.5"></path>
<g>
<path d="M40 31h0"></path>
<path d="M280 31h0"></path>
<path d="M40 31h10"></path>
<g>
<path d="M50 31h0"></path>
<path d="M118 31h0"></path>
<rect x="50" y="20" width="68" height="22"></rect>
<text x="84" y="35">Number</text>
</g>
<path d="M118 31h10"></path>
<path d="M128 31h10"></path>
<g>
<path d="M138 31h0"></path>
<path d="M270 31h0"></path>
<rect x="138" y="20" width="132" height="22"></rect>
<text x="204" y="35">Ordinal&#95;Suffix</text>
</g>
<path d="M270 31h10"></path>
</g>
<path d="M 280 31 h 20 m -10 -10 v 20 m 10 -20 v 20"></path>
</g>
</svg>
