<?xml version="1.0" encoding="utf-8"?><svg class="railroad-diagram" width="157" height="152" viewBox="0 0 157 152">
<g transform="translate(.5 .5)">
<path d="M 20 21 v 20 m 10 -20 v 20 m -10 -10 h 20.5"></path>
<g>
<path d="M40 31h0"></path>
<path d="M116 31h0"></path>
<path d="M40 31h20"></path>
<g>
<path d="M60 31h0"></path>
<path d="M96 31h0"></path>
<rect x="60" y="20" width="36" height="22" rx="10" ry="10"></rect>
<text x="78" y="35">st</text>
</g>
<path d="M96 31h20"></path>
<path d="M40 31a10 10 0 0 1 10 10v10a10 10 0 0 0 10 10"></path>
<g>
<path d="M60 61h0"></path>
<path d="M96 61h0"></path>
<rect x="60" y="50" width="36" height="22" rx="10" ry="10"></rect>
<text x="78" y="65">nd</text>
</g>
<path d="M96 61a10 10 0 0 0 10 -10v-10a10 10 0 0 1 10 -10"></path>
<path d="M40 31a10 10 0 0 1 10 10v40a10 10 0 0 0 10 10"></path>
<g>
<path d="M60 91h0"></path>
<path d="M96 91h0"></path>
<rect x="60" y="80" width="36" height="22" rx="10" ry="10"></rect>
<text x="78" y="95">rd</text>
</g>
<path d="M96 91a10 10 0 0 0 10 -10v-40a10 10 0 0 1 10 -10"></path>
<path d="M40 31a10 10 0 0 1 10 10v70a10 10 0 0 0 10 10"></path>
<g>
<path d="M60 121h0"></path>
<path d="M96 121h0"></path>
<rect x="60" y="110" width="36" height="22" rx="10" ry="10"></rect>
<text x="78" y="125">th</text>
</g>
<path d="M96 121a10 10 0 0 0 10 -10v-70a10 10 0 0 1 10 -10"></path>
</g>
<path d="M 116 31 h 20 m -10 -10 v 20 m 10 -20 v 20"></path>
</g>
</svg>
