<svg class="railroad-diagram" width="197" height="242" viewBox="0 0 197 242">
<g transform="translate(.5 .5)">
<path d="M 20 21 v 20 m 10 -20 v 20 m -10 -10 h 20.5"></path>
<g>
<path d="M40 31h0"></path>
<path d="M156 31h0"></path>
<path d="M40 31h20"></path>
<g>
<path d="M60 31h8"></path>
<path d="M128 31h8"></path>
<rect x="68" y="20" width="60" height="22" rx="10" ry="10"></rect>
<text x="98" y="35">first</text>
</g>
<path d="M136 31h20"></path>
<path d="M40 31a10 10 0 0 1 10 10v10a10 10 0 0 0 10 10"></path>
<g>
<path d="M60 61h4"></path>
<path d="M132 61h4"></path>
<rect x="64" y="50" width="68" height="22" rx="10" ry="10"></rect>
<text x="98" y="65">second</text>
</g>
<path d="M136 61a10 10 0 0 0 10 -10v-10a10 10 0 0 1 10 -10"></path>
<path d="M40 31a10 10 0 0 1 10 10v40a10 10 0 0 0 10 10"></path>
<g>
<path d="M60 91h8"></path>
<path d="M128 91h8"></path>
<rect x="68" y="80" width="60" height="22" rx="10" ry="10"></rect>
<text x="98" y="95">third</text>
</g>
<path d="M136 91a10 10 0 0 0 10 -10v-40a10 10 0 0 1 10 -10"></path>
<path d="M40 31a10 10 0 0 1 10 10v70a10 10 0 0 0 10 10"></path>
<g>
<path d="M60 121h4"></path>
<path d="M132 121h4"></path>
<rect x="64" y="110" width="68" height="22" rx="10" ry="10"></rect>
<text x="98" y="125">fourth</text>
</g>
<path d="M136 121a10 10 0 0 0 10 -10v-70a10 10 0 0 1 10 -10"></path>
<path d="M40 31a10 10 0 0 1 10 10v100a10 10 0 0 0 10 10"></path>
<g>
<path d="M60 151h8"></path>
<path d="M128 151h8"></path>
<rect x="68" y="140" width="60" height="22" rx="10" ry="10"></rect>
<text x="98" y="155">fifth</text>
</g>
<path d="M136 151a10 10 0 0 0 10 -10v-100a10 10 0 0 1 10 -10"></path>
<path d="M40 31a10 10 0 0 1 10 10v130a10 10 0 0 0 10 10"></path>
<g>
<path d="M60 181h8"></path>
<path d="M128 181h8"></path>
<rect x="68" y="170" width="60" height="22" rx="10" ry="10"></rect>
<text x="98" y="185">sixth</text>
</g>
<path d="M136 181a10 10 0 0 0 10 -10v-130a10 10 0 0 1 10 -10"></path>
<path d="M40 31a10 10 0 0 1 10 10v160a10 10 0 0 0 10 10"></path>
<g>
<path d="M60 211h0"></path>
<path d="M136 211h0"></path>
<rect x="60" y="200" width="76" height="22" rx="10" ry="10"></rect>
<text x="98" y="215">seventh</text>
</g>
<path d="M136 211a10 10 0 0 0 10 -10v-160a10 10 0 0 1 10 -10"></path>
</g>
<path d="M 156 31 h 20 m -10 -10 v 20 m 10 -20 v 20"></path>
</g>
</svg>
