<?xml version="1.0" encoding="utf-8"?><svg class="railroad-diagram" width="313" height="62" viewBox="0 0 313 62">
<g transform="translate(.5 .5)">
<path d="M 20 21 v 20 m 10 -20 v 20 m -10 -10 h 20.5"></path>
<g>
<path d="M40 31h0"></path>
<path d="M272 31h0"></path>
<path d="M40 31h10"></path>
<g>
<path d="M50 31h0"></path>
<path d="M86 31h0"></path>
<rect x="50" y="20" width="36" height="22" rx="10" ry="10"></rect>
<text x="68" y="35">to</text>
</g>
<path d="M86 31h10"></path>
<path d="M96 31h10"></path>
<g>
<path d="M106 31h0"></path>
<path d="M134 31h0"></path>
<rect x="106" y="20" width="28" height="22"></rect>
<text x="120" y="35">&#95;</text>
</g>
<path d="M134 31h10"></path>
<path d="M144 31h10"></path>
<g>
<path d="M154 31h0"></path>
<path d="M262 31h0"></path>
<rect x="154" y="20" width="108" height="22"></rect>
<text x="208" y="35">Time&#95;Clause</text>
</g>
<path d="M262 31h10"></path>
</g>
<path d="M 272 31 h 20 m -10 -10 v 20 m 10 -20 v 20"></path>
</g>
</svg>
