<?xml version="1.0" encoding="utf-8"?><svg class="railroad-diagram" width="189" height="212" viewBox="0 0 189 212">
<g transform="translate(.5 .5)">
<path d="M 20 21 v 20 m 10 -20 v 20 m -10 -10 h 20.5"></path>
<g>
<path d="M40 31h0"></path>
<path d="M148 31h0"></path>
<path d="M40 31h20"></path>
<g>
<path d="M60 31h0"></path>
<path d="M128 31h0"></path>
<rect x="60" y="20" width="68" height="22" rx="10" ry="10"></rect>
<text x="94" y="35">minute</text>
</g>
<path d="M128 31h20"></path>
<path d="M40 31a10 10 0 0 1 10 10v10a10 10 0 0 0 10 10"></path>
<g>
<path d="M60 61h8"></path>
<path d="M120 61h8"></path>
<rect x="68" y="50" width="52" height="22" rx="10" ry="10"></rect>
<text x="94" y="65">hour</text>
</g>
<path d="M128 61a10 10 0 0 0 10 -10v-10a10 10 0 0 1 10 -10"></path>
<path d="M40 31a10 10 0 0 1 10 10v40a10 10 0 0 0 10 10"></path>
<g>
<path d="M60 91h12"></path>
<path d="M116 91h12"></path>
<rect x="72" y="80" width="44" height="22" rx="10" ry="10"></rect>
<text x="94" y="95">day</text>
</g>
<path d="M128 91a10 10 0 0 0 10 -10v-40a10 10 0 0 1 10 -10"></path>
<path d="M40 31a10 10 0 0 1 10 10v70a10 10 0 0 0 10 10"></path>
<g>
<path d="M60 121h8"></path>
<path d="M120 121h8"></path>
<rect x="68" y="110" width="52" height="22" rx="10" ry="10"></rect>
<text x="94" y="125">week</text>
</g>
<path d="M128 121a10 10 0 0 0 10 -10v-70a10 10 0 0 1 10 -10"></path>
<path d="M40 31a10 10 0 0 1 10 10v100a10 10 0 0 0 10 10"></path>
<g>
<path d="M60 151h4"></path>
<path d="M124 151h4"></path>
<rect x="64" y="140" width="60" height="22" rx="10" ry="10"></rect>
<text x="94" y="155">month</text>
</g>
<path d="M128 151a10 10 0 0 0 10 -10v-100a10 10 0 0 1 10 -10"></path>
<path d="M40 31a10 10 0 0 1 10 10v130a10 10 0 0 0 10 10"></path>
<g>
<path d="M60 181h8"></path>
<path d="M120 181h8"></path>
<rect x="68" y="170" width="52" height="22" rx="10" ry="10"></rect>
<text x="94" y="185">year</text>
</g>
<path d="M128 181a10 10 0 0 0 10 -10v-130a10 10 0 0 1 10 -10"></path>
</g>
<path d="M 148 31 h 20 m -10 -10 v 20 m 10 -20 v 20"></path>
</g>
</svg>
