<svg class="railroad-diagram" width="213" height="452" viewBox="0 0 213 452">
<g transform="translate(.5 .5)">
<path d="M 20 21 v 20 m 10 -20 v 20 m -10 -10 h 20.5"></path>
<g>
<path d="M40 31h0"></path>
<path d="M172 31h0"></path>
<path d="M40 31h20"></path>
<g>
<path d="M60 31h12"></path>
<path d="M140 31h12"></path>
<rect x="72" y="20" width="68" height="22" rx="10" ry="10"></rect>
<text x="106" y="35">monday</text>
</g>
<path d="M152 31h20"></path>
<path d="M40 31a10 10 0 0 1 10 10v10a10 10 0 0 0 10 10"></path>
<g>
<path d="M60 61h8"></path>
<path d="M144 61h8"></path>
<rect x="68" y="50" width="76" height="22" rx="10" ry="10"></rect>
<text x="106" y="65">tuesday</text>
</g>
<path d="M152 61a10 10 0 0 0 10 -10v-10a10 10 0 0 1 10 -10"></path>
<path d="M40 31a10 10 0 0 1 10 10v40a10 10 0 0 0 10 10"></path>
<g>
<path d="M60 91h0"></path>
<path d="M152 91h0"></path>
<rect x="60" y="80" width="92" height="22" rx="10" ry="10"></rect>
<text x="106" y="95">wednesday</text>
</g>
<path d="M152 91a10 10 0 0 0 10 -10v-40a10 10 0 0 1 10 -10"></path>
<path d="M40 31a10 10 0 0 1 10 10v70a10 10 0 0 0 10 10"></path>
<g>
<path d="M60 121h4"></path>
<path d="M148 121h4"></path>
<rect x="64" y="110" width="84" height="22" rx="10" ry="10"></rect>
<text x="106" y="125">thursday</text>
</g>
<path d="M152 121a10 10 0 0 0 10 -10v-70a10 10 0 0 1 10 -10"></path>
<path d="M40 31a10 10 0 0 1 10 10v100a10 10 0 0 0 10 10"></path>
<g>
<path d="M60 151h12"></path>
<path d="M140 151h12"></path>
<rect x="72" y="140" width="68" height="22" rx="10" ry="10"></rect>
<text x="106" y="155">friday</text>
</g>
<path d="M152 151a10 10 0 0 0 10 -10v-100a10 10 0 0 1 10 -10"></path>
<path d="M40 31a10 10 0 0 1 10 10v130a10 10 0 0 0 10 10"></path>
<g>
<path d="M60 181h4"></path>
<path d="M148 181h4"></path>
<rect x="64" y="170" width="84" height="22" rx="10" ry="10"></rect>
<text x="106" y="185">saturday</text>
</g>
<path d="M152 181a10 10 0 0 0 10 -10v-130a10 10 0 0 1 10 -10"></path>
<path d="M40 31a10 10 0 0 1 10 10v160a10 10 0 0 0 10 10"></path>
<g>
<path d="M60 211h12"></path>
<path d="M140 211h12"></path>
<rect x="72" y="200" width="68" height="22" rx="10" ry="10"></rect>
<text x="106" y="215">sunday</text>
</g>
<path d="M152 211a10 10 0 0 0 10 -10v-160a10 10 0 0 1 10 -10"></path>
<path d="M40 31a10 10 0 0 1 10 10v190a10 10 0 0 0 10 10"></path>
<g>
<path d="M60 241h24"></path>
<path d="M128 241h24"></path>
<rect x="84" y="230" width="44" height="22" rx="10" ry="10"></rect>
<text x="106" y="245">mon</text>
</g>
<path d="M152 241a10 10 0 0 0 10 -10v-190a10 10 0 0 1 10 -10"></path>
<path d="M40 31a10 10 0 0 1 10 10v220a10 10 0 0 0 10 10"></path>
<g>
<path d="M60 271h24"></path>
<path d="M128 271h24"></path>
<rect x="84" y="260" width="44" height="22" rx="10" ry="10"></rect>
<text x="106" y="275">tue</text>
</g>
<path d="M152 271a10 10 0 0 0 10 -10v-220a10 10 0 0 1 10 -10"></path>
<path d="M40 31a10 10 0 0 1 10 10v250a10 10 0 0 0 10 10"></path>
<g>
<path d="M60 301h24"></path>
<path d="M128 301h24"></path>
<rect x="84" y="290" width="44" height="22" rx="10" ry="10"></rect>
<text x="106" y="305">wed</text>
</g>
<path d="M152 301a10 10 0 0 0 10 -10v-250a10 10 0 0 1 10 -10"></path>
<path d="M40 31a10 10 0 0 1 10 10v280a10 10 0 0 0 10 10"></path>
<g>
<path d="M60 331h24"></path>
<path d="M128 331h24"></path>
<rect x="84" y="320" width="44" height="22" rx="10" ry="10"></rect>
<text x="106" y="335">thu</text>
</g>
<path d="M152 331a10 10 0 0 0 10 -10v-280a10 10 0 0 1 10 -10"></path>
<path d="M40 31a10 10 0 0 1 10 10v310a10 10 0 0 0 10 10"></path>
<g>
<path d="M60 361h24"></path>
<path d="M128 361h24"></path>
<rect x="84" y="350" width="44" height="22" rx="10" ry="10"></rect>
<text x="106" y="365">fri</text>
</g>
<path d="M152 361a10 10 0 0 0 10 -10v-310a10 10 0 0 1 10 -10"></path>
<path d="M40 31a10 10 0 0 1 10 10v340a10 10 0 0 0 10 10"></path>
<g>
<path d="M60 391h24"></path>
<path d="M128 391h24"></path>
<rect x="84" y="380" width="44" height="22" rx="10" ry="10"></rect>
<text x="106" y="395">sat</text>
</g>
<path d="M152 391a10 10 0 0 0 10 -10v-340a10 10 0 0 1 10 -10"></path>
<path d="M40 31a10 10 0 0 1 10 10v370a10 10 0 0 0 10 10"></path>
<g>
<path d="M60 421h24"></path>
<path d="M128 421h24"></path>
<rect x="84" y="410" width="44" height="22" rx="10" ry="10"></rect>
<text x="106" y="425">sun</text>
</g>
<path d="M152 421a10 10 0 0 0 10 -10v-370a10 10 0 0 1 10 -10"></path>
</g>
<path d="M 172 31 h 20 m -10 -10 v 20 m 10 -20 v 20"></path>
</g>
</svg>
